STARTFONT 2.1
FONT -FontForge-vtks blocketo-Book-R-Normal--8-80-75-75-P-37-ISO10646-1
SIZE 8 75 75
FONTBOUNDINGBOX 6 7 0 -1
COMMENT "Generated by fontforge, http://fontforge.sourceforge.net"
STARTPROPERTIES 38
FOUNDRY "FontForge"
FAMILY_NAME "vtks blocketo"
WEIGHT_NAME "Book"
SLANT "R"
SETWIDTH_NAME "Normal"
ADD_STYLE_NAME ""
PIXEL_SIZE 8
POINT_SIZE 80
RESOLUTION_X 75
RESOLUTION_Y 75
SPACING "P"
AVERAGE_WIDTH 37
CHARSET_REGISTRY "ISO10646"
CHARSET_ENCODING "1"
FONTNAME_REGISTRY ""
CHARSET_COLLECTIONS "ISO10646-1"
FONT_NAME "vtksblocketo"
FACE_NAME "vtks blocketo"
FONT_VERSION "1.002;Fontself Maker 3.4.0"
FONT_ASCENT 6
FONT_DESCENT 2
UNDERLINE_POSITION 0
UNDERLINE_THICKNESS 0
X_HEIGHT 5
CAP_HEIGHT 5
RAW_ASCENT 800
RAW_DESCENT 200
NORM_SPACE 2
RELATIVE_WEIGHT 40
RELATIVE_SETWIDTH 50
SUPERSCRIPT_X 0
SUPERSCRIPT_Y 3
SUPERSCRIPT_SIZE 5
SUBSCRIPT_X 0
SUBSCRIPT_Y 1
SUBSCRIPT_SIZE 5
AVG_LOWERCASE_WIDTH 40
AVG_UPPERCASE_WIDTH 40
ENDPROPERTIES
CHARS 126
STARTCHAR LF
ENCODING 10
SWIDTH 0 0
DWIDTH 0 0
BBX 1 1 0 0
BITMAP
00
ENDCHAR
STARTCHAR controlCR
ENCODING 13
SWIDTH 0 0
DWIDTH 0 0
BBX 1 1 0 0
BITMAP
00
ENDCHAR
STARTCHAR space
ENCODING 32
SWIDTH 265 0
DWIDTH 2 0
BBX 1 1 0 0
BITMAP
00
ENDCHAR
STARTCHAR zero
ENCODING 48
SWIDTH 520 0
DWIDTH 4 0
BBX 4 6 0 0
BITMAP
F0
F0
D0
D0
D0
F0
ENDCHAR
STARTCHAR one
ENCODING 49
SWIDTH 379 0
DWIDTH 3 0
BBX 3 6 0 0
BITMAP
E0
E0
60
60
60
60
ENDCHAR
STARTCHAR two
ENCODING 50
SWIDTH 520 0
DWIDTH 4 0
BBX 4 6 0 0
BITMAP
F0
F0
10
30
C0
F0
ENDCHAR
STARTCHAR three
ENCODING 51
SWIDTH 520 0
DWIDTH 4 0
BBX 4 6 0 0
BITMAP
E0
E0
10
F0
10
E0
ENDCHAR
STARTCHAR four
ENCODING 52
SWIDTH 520 0
DWIDTH 4 0
BBX 4 6 0 0
BITMAP
D0
D0
D0
D0
30
10
ENDCHAR
STARTCHAR five
ENCODING 53
SWIDTH 520 0
DWIDTH 4 0
BBX 4 6 0 0
BITMAP
30
30
C0
F0
10
F0
ENDCHAR
STARTCHAR six
ENCODING 54
SWIDTH 520 0
DWIDTH 4 0
BBX 4 6 0 0
BITMAP
E0
E0
C0
F0
D0
30
ENDCHAR
STARTCHAR seven
ENCODING 55
SWIDTH 520 0
DWIDTH 4 0
BBX 4 6 0 0
BITMAP
F0
F0
10
70
10
10
ENDCHAR
STARTCHAR eight
ENCODING 56
SWIDTH 520 0
DWIDTH 4 0
BBX 4 6 0 0
BITMAP
F0
F0
D0
20
D0
F0
ENDCHAR
STARTCHAR nine
ENCODING 57
SWIDTH 520 0
DWIDTH 4 0
BBX 4 6 0 0
BITMAP
F0
F0
D0
F0
10
70
ENDCHAR
STARTCHAR A
ENCODING 65
SWIDTH 520 0
DWIDTH 4 0
BBX 4 6 0 0
BITMAP
30
30
D0
F0
D0
D0
ENDCHAR
STARTCHAR B
ENCODING 66
SWIDTH 520 0
DWIDTH 4 0
BBX 4 6 0 0
BITMAP
E0
E0
D0
E0
D0
F0
ENDCHAR
STARTCHAR C
ENCODING 67
SWIDTH 520 0
DWIDTH 4 0
BBX 4 6 0 0
BITMAP
30
30
C0
C0
C0
F0
ENDCHAR
STARTCHAR D
ENCODING 68
SWIDTH 520 0
DWIDTH 4 0
BBX 4 6 0 0
BITMAP
F0
F0
D0
D0
D0
E0
ENDCHAR
STARTCHAR E
ENCODING 69
SWIDTH 520 0
DWIDTH 4 0
BBX 4 6 0 0
BITMAP
F0
F0
C0
E0
C0
30
ENDCHAR
STARTCHAR F
ENCODING 70
SWIDTH 520 0
DWIDTH 4 0
BBX 4 6 0 0
BITMAP
30
30
C0
E0
C0
C0
ENDCHAR
STARTCHAR G
ENCODING 71
SWIDTH 520 0
DWIDTH 4 0
BBX 4 6 0 0
BITMAP
F0
F0
C0
F0
D0
30
ENDCHAR
STARTCHAR H
ENCODING 72
SWIDTH 520 0
DWIDTH 4 0
BBX 4 6 0 0
BITMAP
D0
D0
D0
F0
D0
D0
ENDCHAR
STARTCHAR I
ENCODING 73
SWIDTH 239 0
DWIDTH 2 0
BBX 2 6 0 0
BITMAP
C0
C0
C0
C0
C0
C0
ENDCHAR
STARTCHAR J
ENCODING 74
SWIDTH 520 0
DWIDTH 4 0
BBX 4 6 0 0
BITMAP
10
10
10
10
10
F0
ENDCHAR
STARTCHAR K
ENCODING 75
SWIDTH 520 0
DWIDTH 4 0
BBX 4 6 0 0
BITMAP
D0
D0
D0
E0
D0
D0
ENDCHAR
STARTCHAR L
ENCODING 76
SWIDTH 520 0
DWIDTH 4 0
BBX 4 6 0 0
BITMAP
C0
C0
C0
C0
C0
30
ENDCHAR
STARTCHAR M
ENCODING 77
SWIDTH 800 0
DWIDTH 6 0
BBX 6 6 0 0
BITMAP
F8
F8
D4
D4
D4
D4
ENDCHAR
STARTCHAR N
ENCODING 78
SWIDTH 520 0
DWIDTH 4 0
BBX 4 6 0 0
BITMAP
F0
F0
D0
D0
D0
D0
ENDCHAR
STARTCHAR O
ENCODING 79
SWIDTH 520 0
DWIDTH 4 0
BBX 4 6 0 0
BITMAP
E0
E0
D0
D0
D0
30
ENDCHAR
STARTCHAR P
ENCODING 80
SWIDTH 520 0
DWIDTH 4 0
BBX 4 6 0 0
BITMAP
30
30
D0
D0
F0
C0
ENDCHAR
STARTCHAR Q
ENCODING 81
SWIDTH 520 0
DWIDTH 4 0
BBX 4 7 0 -1
BITMAP
30
30
D0
D0
D0
30
20
ENDCHAR
STARTCHAR R
ENCODING 82
SWIDTH 520 0
DWIDTH 4 0
BBX 4 6 0 0
BITMAP
F0
F0
D0
E0
D0
D0
ENDCHAR
STARTCHAR S
ENCODING 83
SWIDTH 520 0
DWIDTH 4 0
BBX 4 6 0 0
BITMAP
F0
F0
C0
20
10
F0
ENDCHAR
STARTCHAR T
ENCODING 84
SWIDTH 520 0
DWIDTH 4 0
BBX 4 6 0 0
BITMAP
F0
F0
20
20
20
20
ENDCHAR
STARTCHAR U
ENCODING 85
SWIDTH 520 0
DWIDTH 4 0
BBX 4 6 0 0
BITMAP
D0
D0
D0
D0
D0
30
ENDCHAR
STARTCHAR V
ENCODING 86
SWIDTH 520 0
DWIDTH 4 0
BBX 4 6 0 0
BITMAP
D0
D0
D0
D0
D0
20
ENDCHAR
STARTCHAR W
ENCODING 87
SWIDTH 800 0
DWIDTH 6 0
BBX 6 6 0 0
BITMAP
D4
D4
D4
D4
D4
F8
ENDCHAR
STARTCHAR X
ENCODING 88
SWIDTH 520 0
DWIDTH 4 0
BBX 4 6 0 0
BITMAP
D0
D0
D0
20
D0
D0
ENDCHAR
STARTCHAR Y
ENCODING 89
SWIDTH 520 0
DWIDTH 4 0
BBX 4 6 0 0
BITMAP
D0
D0
D0
30
10
10
ENDCHAR
STARTCHAR Z
ENCODING 90
SWIDTH 520 0
DWIDTH 4 0
BBX 4 6 0 0
BITMAP
F0
F0
10
20
C0
F0
ENDCHAR
STARTCHAR a
ENCODING 97
SWIDTH 520 0
DWIDTH 4 0
BBX 4 6 0 0
BITMAP
20
20
D0
F0
D0
D0
ENDCHAR
STARTCHAR b
ENCODING 98
SWIDTH 520 0
DWIDTH 4 0
BBX 4 6 0 0
BITMAP
E0
E0
D0
E0
D0
F0
ENDCHAR
STARTCHAR c
ENCODING 99
SWIDTH 520 0
DWIDTH 4 0
BBX 4 6 0 0
BITMAP
30
30
C0
C0
C0
F0
ENDCHAR
STARTCHAR d
ENCODING 100
SWIDTH 520 0
DWIDTH 4 0
BBX 4 6 0 0
BITMAP
F0
F0
D0
D0
D0
E0
ENDCHAR
STARTCHAR e
ENCODING 101
SWIDTH 520 0
DWIDTH 4 0
BBX 4 6 0 0
BITMAP
30
30
C0
E0
C0
30
ENDCHAR
STARTCHAR f
ENCODING 102
SWIDTH 520 0
DWIDTH 4 0
BBX 4 6 0 0
BITMAP
30
30
C0
E0
C0
C0
ENDCHAR
STARTCHAR g
ENCODING 103
SWIDTH 520 0
DWIDTH 4 0
BBX 4 6 0 0
BITMAP
30
30
C0
F0
D0
30
ENDCHAR
STARTCHAR h
ENCODING 104
SWIDTH 520 0
DWIDTH 4 0
BBX 4 6 0 0
BITMAP
D0
D0
D0
F0
D0
D0
ENDCHAR
STARTCHAR i
ENCODING 105
SWIDTH 239 0
DWIDTH 2 0
BBX 2 6 0 0
BITMAP
C0
C0
00
C0
C0
C0
ENDCHAR
STARTCHAR j
ENCODING 106
SWIDTH 520 0
DWIDTH 4 0
BBX 4 6 0 0
BITMAP
10
10
10
10
10
E0
ENDCHAR
STARTCHAR k
ENCODING 107
SWIDTH 520 0
DWIDTH 4 0
BBX 4 6 0 0
BITMAP
D0
D0
D0
E0
D0
D0
ENDCHAR
STARTCHAR l
ENCODING 108
SWIDTH 520 0
DWIDTH 4 0
BBX 4 6 0 0
BITMAP
C0
C0
C0
C0
C0
30
ENDCHAR
STARTCHAR m
ENCODING 109
SWIDTH 800 0
DWIDTH 6 0
BBX 6 6 0 0
BITMAP
F8
F8
D4
D4
D4
D4
ENDCHAR
STARTCHAR n
ENCODING 110
SWIDTH 520 0
DWIDTH 4 0
BBX 4 6 0 0
BITMAP
F0
F0
D0
D0
D0
D0
ENDCHAR
STARTCHAR o
ENCODING 111
SWIDTH 520 0
DWIDTH 4 0
BBX 4 6 0 0
BITMAP
E0
E0
D0
D0
D0
30
ENDCHAR
STARTCHAR p
ENCODING 112
SWIDTH 520 0
DWIDTH 4 0
BBX 4 6 0 0
BITMAP
30
30
D0
D0
F0
C0
ENDCHAR
STARTCHAR q
ENCODING 113
SWIDTH 520 0
DWIDTH 4 0
BBX 4 7 0 -1
BITMAP
20
20
D0
D0
D0
30
20
ENDCHAR
STARTCHAR r
ENCODING 114
SWIDTH 520 0
DWIDTH 4 0
BBX 4 6 0 0
BITMAP
E0
E0
D0
E0
D0
D0
ENDCHAR
STARTCHAR s
ENCODING 115
SWIDTH 520 0
DWIDTH 4 0
BBX 4 6 0 0
BITMAP
F0
F0
C0
20
10
F0
ENDCHAR
STARTCHAR t
ENCODING 116
SWIDTH 520 0
DWIDTH 4 0
BBX 4 6 0 0
BITMAP
F0
F0
20
20
20
20
ENDCHAR
STARTCHAR u
ENCODING 117
SWIDTH 520 0
DWIDTH 4 0
BBX 4 6 0 0
BITMAP
D0
D0
D0
D0
D0
30
ENDCHAR
STARTCHAR v
ENCODING 118
SWIDTH 520 0
DWIDTH 4 0
BBX 4 6 0 0
BITMAP
D0
D0
D0
D0
D0
20
ENDCHAR
STARTCHAR w
ENCODING 119
SWIDTH 800 0
DWIDTH 6 0
BBX 6 6 0 0
BITMAP
D4
D4
D4
D4
D4
F8
ENDCHAR
STARTCHAR x
ENCODING 120
SWIDTH 520 0
DWIDTH 4 0
BBX 4 6 0 0
BITMAP
D0
D0
D0
20
D0
D0
ENDCHAR
STARTCHAR y
ENCODING 121
SWIDTH 520 0
DWIDTH 4 0
BBX 4 6 0 0
BITMAP
D0
D0
D0
30
10
30
ENDCHAR
STARTCHAR z
ENCODING 122
SWIDTH 520 0
DWIDTH 4 0
BBX 4 6 0 0
BITMAP
F0
F0
10
20
C0
F0
ENDCHAR
STARTCHAR nonbreakingspace
ENCODING 160
SWIDTH 265 0
DWIDTH 2 0
BBX 1 1 0 0
BITMAP
00
ENDCHAR
STARTCHAR softhyphen
ENCODING 173
SWIDTH 0 0
DWIDTH 0 0
BBX 1 1 0 0
BITMAP
00
ENDCHAR
STARTCHAR A.dup1
ENCODING 192
SWIDTH 520 0
DWIDTH 4 0
BBX 4 6 0 0
BITMAP
30
30
D0
F0
D0
D0
ENDCHAR
STARTCHAR A.dup2
ENCODING 193
SWIDTH 520 0
DWIDTH 4 0
BBX 4 6 0 0
BITMAP
30
30
D0
F0
D0
D0
ENDCHAR
STARTCHAR A.dup3
ENCODING 194
SWIDTH 520 0
DWIDTH 4 0
BBX 4 6 0 0
BITMAP
30
30
D0
F0
D0
D0
ENDCHAR
STARTCHAR A.dup4
ENCODING 195
SWIDTH 520 0
DWIDTH 4 0
BBX 4 6 0 0
BITMAP
30
30
D0
F0
D0
D0
ENDCHAR
STARTCHAR A.dup5
ENCODING 196
SWIDTH 520 0
DWIDTH 4 0
BBX 4 6 0 0
BITMAP
30
30
D0
F0
D0
D0
ENDCHAR
STARTCHAR A.dup6
ENCODING 197
SWIDTH 520 0
DWIDTH 4 0
BBX 4 6 0 0
BITMAP
30
30
D0
F0
D0
D0
ENDCHAR
STARTCHAR C.dup7
ENCODING 199
SWIDTH 520 0
DWIDTH 4 0
BBX 4 6 0 0
BITMAP
30
30
C0
C0
C0
F0
ENDCHAR
STARTCHAR E.dup8
ENCODING 200
SWIDTH 520 0
DWIDTH 4 0
BBX 4 6 0 0
BITMAP
F0
F0
C0
E0
C0
30
ENDCHAR
STARTCHAR E.dup9
ENCODING 201
SWIDTH 520 0
DWIDTH 4 0
BBX 4 6 0 0
BITMAP
F0
F0
C0
E0
C0
30
ENDCHAR
STARTCHAR E.dup10
ENCODING 202
SWIDTH 520 0
DWIDTH 4 0
BBX 4 6 0 0
BITMAP
F0
F0
C0
E0
C0
30
ENDCHAR
STARTCHAR E.dup11
ENCODING 203
SWIDTH 520 0
DWIDTH 4 0
BBX 4 6 0 0
BITMAP
F0
F0
C0
E0
C0
30
ENDCHAR
STARTCHAR I.dup12
ENCODING 204
SWIDTH 239 0
DWIDTH 2 0
BBX 2 6 0 0
BITMAP
C0
C0
C0
C0
C0
C0
ENDCHAR
STARTCHAR I.dup13
ENCODING 205
SWIDTH 239 0
DWIDTH 2 0
BBX 2 6 0 0
BITMAP
C0
C0
C0
C0
C0
C0
ENDCHAR
STARTCHAR I.dup14
ENCODING 206
SWIDTH 239 0
DWIDTH 2 0
BBX 2 6 0 0
BITMAP
C0
C0
C0
C0
C0
C0
ENDCHAR
STARTCHAR I.dup15
ENCODING 207
SWIDTH 239 0
DWIDTH 2 0
BBX 2 6 0 0
BITMAP
C0
C0
C0
C0
C0
C0
ENDCHAR
STARTCHAR N.dup16
ENCODING 209
SWIDTH 520 0
DWIDTH 4 0
BBX 4 6 0 0
BITMAP
F0
F0
D0
D0
D0
D0
ENDCHAR
STARTCHAR O.dup17
ENCODING 210
SWIDTH 520 0
DWIDTH 4 0
BBX 4 6 0 0
BITMAP
E0
E0
D0
D0
D0
30
ENDCHAR
STARTCHAR O.dup18
ENCODING 211
SWIDTH 520 0
DWIDTH 4 0
BBX 4 6 0 0
BITMAP
E0
E0
D0
D0
D0
30
ENDCHAR
STARTCHAR O.dup19
ENCODING 212
SWIDTH 520 0
DWIDTH 4 0
BBX 4 6 0 0
BITMAP
E0
E0
D0
D0
D0
30
ENDCHAR
STARTCHAR O.dup20
ENCODING 213
SWIDTH 520 0
DWIDTH 4 0
BBX 4 6 0 0
BITMAP
E0
E0
D0
D0
D0
30
ENDCHAR
STARTCHAR O.dup21
ENCODING 214
SWIDTH 520 0
DWIDTH 4 0
BBX 4 6 0 0
BITMAP
E0
E0
D0
D0
D0
30
ENDCHAR
STARTCHAR O.dup22
ENCODING 216
SWIDTH 520 0
DWIDTH 4 0
BBX 4 6 0 0
BITMAP
E0
E0
D0
D0
D0
30
ENDCHAR
STARTCHAR U.dup23
ENCODING 217
SWIDTH 520 0
DWIDTH 4 0
BBX 4 6 0 0
BITMAP
D0
D0
D0
D0
D0
30
ENDCHAR
STARTCHAR U.dup24
ENCODING 218
SWIDTH 520 0
DWIDTH 4 0
BBX 4 6 0 0
BITMAP
D0
D0
D0
D0
D0
30
ENDCHAR
STARTCHAR U.dup25
ENCODING 219
SWIDTH 520 0
DWIDTH 4 0
BBX 4 6 0 0
BITMAP
D0
D0
D0
D0
D0
30
ENDCHAR
STARTCHAR U.dup26
ENCODING 220
SWIDTH 520 0
DWIDTH 4 0
BBX 4 6 0 0
BITMAP
D0
D0
D0
D0
D0
30
ENDCHAR
STARTCHAR Y.dup27
ENCODING 221
SWIDTH 520 0
DWIDTH 4 0
BBX 4 6 0 0
BITMAP
D0
D0
D0
30
10
10
ENDCHAR
STARTCHAR a.dup28
ENCODING 224
SWIDTH 520 0
DWIDTH 4 0
BBX 4 6 0 0
BITMAP
20
20
D0
F0
D0
D0
ENDCHAR
STARTCHAR a.dup29
ENCODING 225
SWIDTH 520 0
DWIDTH 4 0
BBX 4 6 0 0
BITMAP
20
20
D0
F0
D0
D0
ENDCHAR
STARTCHAR a.dup30
ENCODING 226
SWIDTH 520 0
DWIDTH 4 0
BBX 4 6 0 0
BITMAP
20
20
D0
F0
D0
D0
ENDCHAR
STARTCHAR a.dup31
ENCODING 227
SWIDTH 520 0
DWIDTH 4 0
BBX 4 6 0 0
BITMAP
20
20
D0
F0
D0
D0
ENDCHAR
STARTCHAR a.dup32
ENCODING 228
SWIDTH 520 0
DWIDTH 4 0
BBX 4 6 0 0
BITMAP
20
20
D0
F0
D0
D0
ENDCHAR
STARTCHAR a.dup33
ENCODING 229
SWIDTH 520 0
DWIDTH 4 0
BBX 4 6 0 0
BITMAP
20
20
D0
F0
D0
D0
ENDCHAR
STARTCHAR c.dup34
ENCODING 231
SWIDTH 520 0
DWIDTH 4 0
BBX 4 6 0 0
BITMAP
30
30
C0
C0
C0
F0
ENDCHAR
STARTCHAR e.dup35
ENCODING 232
SWIDTH 520 0
DWIDTH 4 0
BBX 4 6 0 0
BITMAP
30
30
C0
E0
C0
30
ENDCHAR
STARTCHAR e.dup36
ENCODING 233
SWIDTH 520 0
DWIDTH 4 0
BBX 4 6 0 0
BITMAP
30
30
C0
E0
C0
30
ENDCHAR
STARTCHAR e.dup37
ENCODING 234
SWIDTH 520 0
DWIDTH 4 0
BBX 4 6 0 0
BITMAP
30
30
C0
E0
C0
30
ENDCHAR
STARTCHAR e.dup38
ENCODING 235
SWIDTH 520 0
DWIDTH 4 0
BBX 4 6 0 0
BITMAP
30
30
C0
E0
C0
30
ENDCHAR
STARTCHAR i.dup39
ENCODING 236
SWIDTH 239 0
DWIDTH 2 0
BBX 2 6 0 0
BITMAP
C0
C0
00
C0
C0
C0
ENDCHAR
STARTCHAR i.dup40
ENCODING 237
SWIDTH 239 0
DWIDTH 2 0
BBX 2 6 0 0
BITMAP
C0
C0
00
C0
C0
C0
ENDCHAR
STARTCHAR i.dup41
ENCODING 238
SWIDTH 239 0
DWIDTH 2 0
BBX 2 6 0 0
BITMAP
C0
C0
00
C0
C0
C0
ENDCHAR
STARTCHAR i.dup42
ENCODING 239
SWIDTH 239 0
DWIDTH 2 0
BBX 2 6 0 0
BITMAP
C0
C0
00
C0
C0
C0
ENDCHAR
STARTCHAR n.dup43
ENCODING 241
SWIDTH 520 0
DWIDTH 4 0
BBX 4 6 0 0
BITMAP
F0
F0
D0
D0
D0
D0
ENDCHAR
STARTCHAR o.dup44
ENCODING 242
SWIDTH 520 0
DWIDTH 4 0
BBX 4 6 0 0
BITMAP
E0
E0
D0
D0
D0
30
ENDCHAR
STARTCHAR o.dup45
ENCODING 243
SWIDTH 520 0
DWIDTH 4 0
BBX 4 6 0 0
BITMAP
E0
E0
D0
D0
D0
30
ENDCHAR
STARTCHAR o.dup46
ENCODING 244
SWIDTH 520 0
DWIDTH 4 0
BBX 4 6 0 0
BITMAP
E0
E0
D0
D0
D0
30
ENDCHAR
STARTCHAR o.dup47
ENCODING 245
SWIDTH 520 0
DWIDTH 4 0
BBX 4 6 0 0
BITMAP
E0
E0
D0
D0
D0
30
ENDCHAR
STARTCHAR o.dup48
ENCODING 246
SWIDTH 520 0
DWIDTH 4 0
BBX 4 6 0 0
BITMAP
E0
E0
D0
D0
D0
30
ENDCHAR
STARTCHAR o.dup49
ENCODING 248
SWIDTH 520 0
DWIDTH 4 0
BBX 4 6 0 0
BITMAP
E0
E0
D0
D0
D0
30
ENDCHAR
STARTCHAR u.dup50
ENCODING 249
SWIDTH 520 0
DWIDTH 4 0
BBX 4 6 0 0
BITMAP
D0
D0
D0
D0
D0
30
ENDCHAR
STARTCHAR u.dup51
ENCODING 250
SWIDTH 520 0
DWIDTH 4 0
BBX 4 6 0 0
BITMAP
D0
D0
D0
D0
D0
30
ENDCHAR
STARTCHAR u.dup52
ENCODING 251
SWIDTH 520 0
DWIDTH 4 0
BBX 4 6 0 0
BITMAP
D0
D0
D0
D0
D0
30
ENDCHAR
STARTCHAR u.dup53
ENCODING 252
SWIDTH 520 0
DWIDTH 4 0
BBX 4 6 0 0
BITMAP
D0
D0
D0
D0
D0
30
ENDCHAR
STARTCHAR y.dup54
ENCODING 253
SWIDTH 520 0
DWIDTH 4 0
BBX 4 6 0 0
BITMAP
D0
D0
D0
30
10
30
ENDCHAR
STARTCHAR y.dup55
ENCODING 255
SWIDTH 520 0
DWIDTH 4 0
BBX 4 6 0 0
BITMAP
D0
D0
D0
30
10
30
ENDCHAR
STARTCHAR Y.dup56
ENCODING 376
SWIDTH 520 0
DWIDTH 4 0
BBX 4 6 0 0
BITMAP
D0
D0
D0
30
10
10
ENDCHAR
STARTCHAR .notdef
ENCODING -1
SWIDTH 527 0
DWIDTH 4 0
BBX 4 6 0 0
BITMAP
F0
B0
F0
D0
B0
F0
ENDCHAR
STARTCHAR .null
ENCODING -1
SWIDTH 0 0
DWIDTH 0 0
BBX 1 1 0 0
BITMAP
00
ENDCHAR
STARTCHAR nonmarkingreturn
ENCODING -1
SWIDTH 265 0
DWIDTH 2 0
BBX 1 1 0 0
BITMAP
00
ENDCHAR
ENDFONT
